<mxfile host="app.diagrams.net" agent="Mozilla/5.0 (Windows NT 10.0; Win64; x64) AppleWebKit/537.36 (KHTML, like Gecko) Chrome/127.0.0.0 Safari/537.36" version="24.7.8">
  <diagram name="Page-1" id="6oAqDSsXFQD4mfEDU1sE">
    <mxGraphModel dx="2501" dy="2002" grid="1" gridSize="10" guides="1" tooltips="1" connect="1" arrows="1" fold="1" page="1" pageScale="1" pageWidth="827" pageHeight="1169" math="0" shadow="0">
      <root>
        <mxCell id="0" />
        <mxCell id="1" parent="0" />
        <mxCell id="GUJvGI-NjpSo06BksAi8-5" value="" style="shape=image;verticalLabelPosition=bottom;labelBackgroundColor=default;verticalAlign=top;aspect=fixed;imageAspect=0;image=data:image/png,iVBORw0KGgoAAAANSUhEUgAAAE0AAABGCAMAAAC+EOlBAAAAAXNSR0IArs4c6QAAAARnQU1BAACxjwv8YQUAAAFiUExURQAAAAAAAAAAAAAAAAAAAAAAAAAAAAAAAAAAAAAAAAAAAAAAAAAAAAAAAAAAAAAAAAAAAAAAAAAAAAAAAAAAAAAAAAAAAAAAAAAAAAAAAAAAAAAAAAAAAAAAAAAAAAAAAAAAAAAAAAAAAAAAAAAAAAAAAAAAAAAAAAAAAAAAAAAAAAAAAAUOEwUOEwUOEwUOEgUOEgQNEgQNEQQNEQQNEQQNEQQNEQQOFAQOFAQOFAQOFAQOFAELEgAKEAAKEAAHDgAKEAAHDgAHDQIHCgIHCgIHCgAMFQAECAAECBAuQxAuQgwkNQsgMAwkNQsgMAYUHQodKwACAwAfNQAfNgodKx5VfB5VewAJDwA+bQA/bQA/bgFBbwAMFQAFCAIHCgMHCgAAAAAjPAA4YABFdgBFdwBGeABJfgBPhgBPhwBUkABZmQBamQBamgBipwBiqABuvQBvvgBwvwBwwBlGZjCIxjKMzJre7/QAAABgdFJOUwABAgMEBQYHCAkKCwwNDg8QERITFBUWFxgZGhscHR4fICEiIyQlJicoOTo7bG1ub3F0dXZ3eHmztLW2t7jMzc7Oz9Dc3d7j7O3t7u/w8PHz8/T09PT19vf5+fn5+vv7/HWzT1AAAAAJcEhZcwAAFxEAABcRAcom8z8AAAURSURBVFhH7Zf5d9tEFIUbx7JkWbZl7bZkS3YCLWXf9wAthH0tUHALiCUQsAsJlP+f+2bGji29CTSH3+CenBOfGc+nO2807/ld+l//qna2pUYvJIXY2Wk0GurThXm0FhhoF5Kf1jz6sCkxqBd9RXKaKwkmraQ5IcUXUutYYZpYzaZhtJQMg4ANjItJEmOak2IZLdO0rLaQZZkEpOX0V/UsTLMSz36o3Nb1jt024RCrCXHmWZrW4wTs7T83dffdstdVPIBgeuVZmhYxYHEs7FbpueBh7bPK7ErX7bbkAacIG+JhyzL0Pbfr2M99pgalyLSDh7QMsVnFWIuCxsCW5TAOYe/5KuxWOXB7jm21WHME++aPLb0H2LLMRsC98LnCSCnTbq/TNmGuRqN9lt9t6dsbgC3LArgX67BlmUS+2+XNgbZb/r6lI0mbTtKXvv70o019KEynSej1O22W1mg0edpeMS5/3tKPN8XEJI191+FoZM3Q0SaViV8lrciSwO22TZbWZGmLcn+qoU3Hw1BDa+w2WxqazhtowWqnCiMlNmrqaGMdDTu9J9piUc7yjKchbn6/gzeEC1vL4mnFJOVpeRp5PZt5ewWtzdHm1/JsxNNwCAMcAkOjQ9iknUJHNxaL+cHlCU87fguvm9goF7YNGqEE7ZcvAUuHSXl6qqaEiHZ8+ABZ02z0jEagE9IPn3zx6pVJNkyItskD7fjw6gjWtDdB0dask9++v31wJR+nSRSXJycrHM3fufnT4YNZEg56HdOonaiiWR+rrLrSa5fzLB3GUQSawBEKuvOVgHmwpstHTcO0HdePh9mkmM729vZms2k+SUdxHIXVx7x5NRtSOlIJREHWInNGq+30BsHTasVKb0RRGIZRPBql4zwviiIvJmM4DmANyQ3eGgqyltiqYdnd/uPvqIwodff9Et7CMIjiZDjK0iwbj7N0hOzuD3qOLAvMTsmc2bYfq8CQ/hG4MAAwjCIAoeEwwZDvkjecwm69AspzMB+twZblKInjMPC9J9XWV3odRQZ1Vpir4fCjwHiEq1lj4FAFn6g+CDULx0DmmL0ikz9cqVkfiPSPmwVaNZ4IAc6hi5vFRg7e+JqFKpNENWcIQRR4roOr1ayXZ3rjKpdbZMsl8luaPFWHIaBxgNvAV0B9zcrHz7AhoDeYvw7iDdHQiowPATwH2izC1yxZT9WIkpooRLpkafS68Yv2cw1tNhnxqVxeBW7RguKmp7HezqNN82qVOaOJndbOlMLG1izQirGOdk511tYs5HKeNtXW03Um3xAtmh/cn40Snibqacdiw8bS5gf3ARbzNF091dEAk3VBjSgJ2vzaP6ynSke3X96nlO0HDG1+sH9+Pa3VrFdmlIu8gVenAYZXV/c7VdWsvhfGwxS5X2X/CL1Cv+8yIdhHccZvaMaaNGe0rE637wVhnAjFyF/UxzjdHhMCpCOkXjYdya2iynS6PXfg+UEQ+Nih2+85TsfuOPUQUDlFs8AmXtBE5EzLBq/XF4IrtGto0izb6br+dgjQ3siiwLVFZI7ctdDg2R0pm7oy9H54Bsp2JQSDVfnjYGuc7HOFiIQWlBpSYXkrBOgyUV90MLFXapuxWjS09I8aXGqWqSuthoCaSW1vKnDgUaste236IFp3yauGQBjTwiDF25AY4UMgGv1zYBJXlS4Ef8eSEgilsxH4rIbg7Av3KMXbEI1cjAWJxRWpqQtKQYTU0H9Wly79BWVgD242OWzDAAAAAElFTkSuQmCC;" vertex="1" parent="1">
          <mxGeometry y="-150" width="77" height="70" as="geometry" />
        </mxCell>
        <mxCell id="GUJvGI-NjpSo06BksAi8-7" value="" style="shape=image;verticalLabelPosition=bottom;labelBackgroundColor=default;verticalAlign=top;aspect=fixed;imageAspect=0;image=data:image/png,iVBORw0KGgoAAAANSUhEUgAAAFUAAABKCAMAAAD9q+gmAAAAAXNSR0IArs4c6QAAAARnQU1BAACxjwv8YQUAAAHdUExURQAAAAAAAAAAAAAAAAAAAAAAAAAAAAAAAAAAAAAAAAAAAAAAAAAAAAAAAAAAAAAAAAAAAAAAAAAAAAAAAAAAAAAAAAAAAAAAAAAAAAAAAAAAAAAAAAAAAAAAAAAAAAAAAAAAAAAAAAAAAAAAAAAAAAAAAAAAAAAAAAAAAAAAAAAAAAAAAAAAAAAAAAAAAAAAAAAAAAAAAAAAAAAAAAAAAAAAAAAAAAAAAAAAAAAAAAAAAAAAAAAAAAAAAAAAAAAAAAAAAAAAAAAAAAAAAAAAAAAAAAAAAAAAAAAAAAAAAAAAAAAAAAAAAAAAAAAAAAAAAAAAAAAAAAgGAAgGAAgGAAgGAAAAAAcGAAcGAAcFAAcFAAcFAAcFAAcFAAwJAAwJAAsJAAsJAAkHAAsIAAsIAA4KAAkHAAoIAAoIADMmADMmADMmADMmABUQAAYFABUQABgSAAgGAAwJABgSAEExAGFJAFQ/AFxGAHpcAAMCAAoIAFQ/AFxFAAMCAAQDAAAAAAgGAAkHAAoIABAMABgSACAYACgeADAkADgqAEg2AFA8AFhCAFpEAGBIAGhOAHhaAH9gAIdmAJdyAJ94AKd+ALeKAL+QAMeWAM+cANeiAN+oAOeuAO+0APe6AP/AAIw4rmsAAAB/dFJOUwABAgMEBQYHCAkKCwwNDg8QERITFBUWFxgZGhscHR4fICEiIyQlJicoKSorLC0xMjM1Njc4OTo7PD9ARkhKTU9RUlNUVVZXWFlaW1xdXl9ye4GEhYaHiImLjZCSk5TEx8nK19jZ29ze3+/w8fL09fX29/f39/f5+fn6+vr6+/ztnrQCAAAACXBIWXMAABcRAAAXEQHKJvM/AAAFDUlEQVRYR+3Y93faVhQHcA+mEEgCxN7BGOymI22a7pGJ485075EOt6Ft2nSmbtWUNDhx7NShxMZDf2vvfe9pGBAgw4/+nmNbCPw5l/eueHpMHOYwB84kDXs0cjzww0gaenq0iJ9eINYUzXhY8eLPly8gOU0zFle8+Iu6ffm1qWmHw4lxMJc9fbAgqgL7usPpcmNc4I7KUhTZNzweL8dxXg91R1ElhiL7lo/3+/28z+uxxeIk7I+BIvu2KEmiEOA5j9vpwEFg/2cZpnTEjAJ75R1ZDockwe+DarHY/iwhaDOaE9TQzT3yZ/vKu/FYVA6JyA4aA0aybjQS0tDWnz9q7HupZCwCLDeIJeY0dCNtRz3yZxr6/cKHOvt+JhUHluesh/ZzpU+u3SaQ2voLHvygsx9kgQ0KvNdNhpZJ5ijklT2z21ijB616C34rH5nZmCwFrIfWWu1AVaX8sYlNRmEMLIu1VDtRVSke/cRg04lI0LpYK7ULVZXZyqtX2/T49y9KtFib6la9SQ/u/rNND5S5V65u0cPlLx/IpeOy5Ic2sKUabJOxigl9qJjP4BBwHmguO2oXq+jo0rFZpvpsqx1s828dfbhcKuZhBA5S6362WTfQyuxMATo2fIBxxRjsdQN9pFIuHclDZ4Usr67JvqqJNdA5RDNJKNWyX7vUvdVNetBe3YHfOkuzvHRcQ+U+HwRd6r/rK3fwAtpobNzEx/vYDhQ/tIZSt1b2ANxsI71GPBML6DygOQ21ul4nO9U7t3bhza80YBj21lfJKZ1dXnp0vgJoOhENSwY6hKo2b+BlD2Ow2digZzT2thkN8LDMAtqr1B6qunOdGPe0VoIQdu3aifsqcE0BGhIDPq/bEp2YnOpUt+lk4XSxZoAAu9ZQjs4RFNcsQNntC4PMgeWqQ/2PWBsot1e0IUC2savMl2cKGawU1lc2+73QHmoTPlWhAUihd9fZScjWLnwSzh7B65Qs2n3QHqp6s0VEkNs36FBoUcoz+JFCrihofksUhnW6U92pa+Nav0f+6lGg1KS+tPYeUgyU2qViU9HsrxRULBXev+UVxdJTtYxSzCWjfVZALaA6bKiFTL+lSo9NNZ+KhYSBpeJk2VGzZP0bolRbKs6V5R2AHlSdNlSYKzIAfVHbtfZb/owQ9duvvoZc0lL7iRmq+mutVmNnSf6AK2DwXFF15smnnn7m2edOnj5zrrpwfvHl75ipqrU3X3phcfH8QrVaPXf2zKmTJ/D+emCphHU43RwvBMOReCKVzuYKj5vUF0vFQj6XzaRTyUR82L0AK9bl4fyCFJIjsXgylXnMUC8twgqVBjAWi0Zksm+xvF81h6hOt4fjA4IURDhx/BtmglrNphOwXwmHQ0FjjzWMylgvbPkCIhQcPWZSz8LdP+ytREEIwH4Q9plD7gdBRdYFLgewIIUfNKmnYuR987wPtq7G3nWgyliylQaYD4j3m9TnYdH3+6BGD+yyXXT/PgyKY0B3Wk5SsC9Q+o3uiTBP4J2EF/ftIDpsfSdAWNwUYsHAijC48QRMfAQXfbiTQBGeBhLN4VBaLoUdlA2G5UhEDgdFipIaGTmsiSGvJwOMrF8QpSC2ErYnND193yTs9UMH/4exnM/vD0Ar+aA98UpiJnuhzTDW6SLfgWArjeXbFY0lXYa9hLM0ookhrPblEjHHgGrlaqHzzp4aJaCAy4IPxoFS1hR2dgxh4DjJw4yQiYn/AVONP5FsOPafAAAAAElFTkSuQmCC;" vertex="1" parent="1">
          <mxGeometry x="10" y="-220" width="57.43" height="50" as="geometry" />
        </mxCell>
        <mxCell id="GUJvGI-NjpSo06BksAi8-9" value="" style="shape=image;verticalLabelPosition=bottom;labelBackgroundColor=default;verticalAlign=top;aspect=fixed;imageAspect=0;image=data:image/png,iVBORw0KGgoAAAANSUhEUgAAAEYAAAA+CAMAAAChgZ0aAAAAAXNSR0IArs4c6QAAAARnQU1BAACxjwv8YQUAAAFcUExURQAAAAAAAAAAAAAAAAAAAAAAAAAAAAAAAAAAAAAAAAAAAAAAAAAAAAAAAAAAAAAAAAAAAAAAAAAAAAAAAAAAAAAAAAAAAAAAAAAAAAAAAAAAAAAAAAAAAAAAAAAAAAAAAAAAAAAAAAAAAAAAAAAAAAAAAAAAAAAAAAAAAAAAAAAAAAAAAAAAAAAAAAAAAAAAAAAAAAAAAAAAAAAAAAAAAAAAAAAAAAAAAAAAAAAAAAAAAAAAAAAAAAAAAAAAAAAAAAAAAAAAAAAAAAAAAAAAAAAAAAAAAAAAAAAAAAAAAAAAAAAAAAAAAAAAAAAAAAAAAAAAAAAAAAAAAAAAAAAAAAAAAAAAAAAAAAAAAAAAAAAAAAAAAAAAAAAAAAAAAAQGAgAAAAkNBRIaChsnDyAuEik7Fy5BGTJIHDdOHkViJkloKFuCMmCINGmVOXepQYC2RoS8SInDS43JTZLQUBBKbWgAAABgdFJOUwABAgMEBQYHCAkKCwwNDg8QERITFBUWFxgZGhscHR4fICEiIyQlJicoKSosLzM2Nzk7PEBBQkNERUhMVldZW19gaG5wcXN0dXZ3jJCRlJ+orrfHz9DW3+Dh4u/w8fj5/kr6DpsAAAAJcEhZcwAAFxEAABcRAcom8z8AAARESURBVFhH7Zbpe9tEEMbjW5Jl2ZJv+baTlHKU+6bc5aYQAiTgBIaG0LTlaOP//3l4ZzSyZVly+r19vyTed/Tb3Vlpdnae6smVoX93MiL9kaDt/kHACYJE8jum2+pBOhITHdQUkmUlBmZuU8ROBBEd1mAhJAcFkWqFMg+IAl9BOh4VgeOCksvlWRy6HphhCgX2phuK6A4detlcvlAoFgsFhK5HMuUPItgsBiVyiB6e0WEvXyiWSkapVEQkc9QNKP8SFWEHLnPUjIho8eiMjnZLhmlZlmkgdMXJZNwfQFkQGSbLKPEsScsBRjjXrLJdqdhl01hxQDmkO/8tgIFrl8UUTvBsRIwRzrNOtVarVmwr5EBKAabiQJikVNyCYc7xDa9e92oOczTPnlKAqbmuu/RSMYvLc5q/1mo1G2415GT9H5UCTL3R4DmwHCw1HcOckze73XbTA4eXnpv9TGcPA5Oo3W63eIqrMMJ5u+93mIMUFGZHdPZIPSLf76qTiMksMcJ5b9CTaMvYj1CAGfR73Va99hiYxeVdOv1gCI7r2NejFGBGw4HfFkxiiqOYxeKCfvsQnIb7ypzOVxRgJuNhTzByUvrwSusY5bRfPaHzSx1iEc0mjKmWcYhJi4lhmPPx8K0YBZjd6ajX9pyyUXgsDDj0dZwCzN506Lc8x0rJ8AZmcQ/V5e46RTFNt5KW4ewG5p/fiR7o/6GAmQy6jbQMo3jGMaD8tMFBbib9Dmc4JTVxDCjf730T5wAz5gynpiaG+RuUa3uzz4nu64gIBz7yW27FSktNbg3zgOi7Z/Zmk9GtdQ7RdKipQQXRh5fCYtYwoHwrlEH/0zUO3uLtqYlimIIdjYd9v9v9JMohuiI1+RWGKft4Wwd+p91qtT46pQt1gNn+1uRWmPtEX2FDwz5KV93z6s2bKw4KRZia5D0VQgwoX+5Ox1xv6m6tWq15jRWHqC/fZWpqQgwoX0yRlW4bpdKxbbtSdVccVL9tH1Q2rxhQPhuPsBRUONwjlmlatgPOCf3FnxdRJ/VLEExRMPfo9NZw0Pe5oFdwqeGeNUxwmm8EHztKemqtkQwL5oJO3+/1fCxFrhfUc/QFJdOuesohQmFN31OAAeVmp9NpNeQi4vs1jzYkysE9xZdC8nErBpR3m81mA0vBhuSKknanWLLAabw+pz+JXBS+1NQIhubveBAfEN/fiMV3A1C+aIDj1l/6BTFO2tXCGDmp+cvSBAQXvTYe7AUcp+o+f0yUfntzLN6b+YvckaAlQW5lKUIJOWbZdpznjonXKRPowxHJrn69If1R0CApRU3mlEyrXC5fPwobJHlwXRL5Ao7WgAQSnS/gsIsuaz/crZpR8cpxItw7onvcbB4DjrjhQtVal3JE2qtGA4UDW/rT2BxR8WMcyUpqrK+wlwo4Iv53Iyzm6+im2FxKx6JSR6RDydKYrQsW6e+nelK1s/M/ofabvJGnI6EAAAAASUVORK5CYII=;" vertex="1" parent="1">
          <mxGeometry x="3.5" y="-62" width="70" height="62" as="geometry" />
        </mxCell>
        <mxCell id="GUJvGI-NjpSo06BksAi8-10" value="" style="shape=image;verticalLabelPosition=bottom;labelBackgroundColor=default;verticalAlign=top;aspect=fixed;imageAspect=0;image=data:image/png,iVBORw0KGgoAAAANSUhEUgAAAGQAAABQCAYAAADvCdDvAAAAAXNSR0IArs4c6QAAAARnQU1BAACxjwv8YQUAAAAJcEhZcwAAFxEAABcRAcom8z8AAA4ISURBVHhe7Zx/jFxVFcfnvh8zb2b21+zv0hZKaWtbCt3+sLZCQ1cFRCCAAl0p0IKABRFESMQgoohGgogYYoyYYCQiamKQRPAPxBBF/lBBUZMqEgWMiqLA0t3Z+dE+v9/pnM3l9s6P3Z03s6Vzk09YOjv3nnO+95xz35s3G2uP9miP9miP9miP9mjkUHXSHhEOW8BnQtTDtqZwyI/N4DNlkkB3zpkh+nvJrEdnzLlowHGuKv+vDHP+WhwSYyXY3eV5j7lK5Y+IJ8Z3DB4xtbGzO5twnFfx2geBBNg18CzorzdKmOF+5bxyjOO+gp9HgDkfkbVMzN+bd2MYjHW47oMp1/13l+tNntbbv/fuZavDX204IfzXO989zX0rjw8H4/Fsh+M+i/ecACTovkZcQ/93XZw5BSej1FPfTnSHjwaZsE85z+GfJHP1wOsbwVyXzHjdSIev1G2drve8p1Rhc2f367cevSJ8bO2mNwlg44XNo+FNRx0TJh031+W692OqI0ECBBXga0QE0jNnxsFJxZzLz3ATr72YGgjJR7zkG70x9SW8JHNxXlnDxqzWjXQEMeeGHuXk8GN4+9KV1sDX4tm3bw3P6BvMo4xlMc/NoA+kQUcZ/kxSZbiLTWH0nasHp1KASqXqD8n+khjkuVR/WC5d64EEnfPrmSrYNkStNSMfw8mYGme6fy/REy53/anlQSr7w2PXWwNfix8ftzFck+7MBo7zMua+AHQbdIFOQJFEGGaOHqC6dq2UKhFD0EoX1+G8krFcS5Bsta3bOkG6Yuob271gQnfoC/GOMOO4+dN7B7Lc+bbA1+LrK9aEPZ6fQy96CstsAf2AWdMLMkDE0YWpFaDpQJmlyuQqL7k3E1N34VcZeM4vGapnarXNML1WM8dIEFNTv0n2HeQQy8AlfrKA3rLvukVLCuwVtsBXg+/56MIlIfpSMe2638J6K8AgGAAUR4ThTpYg1ZMtC8xSZaKVLm4Gik7xiS1L9TVtm6A5o1upJz8VTxdsDgk/C3rDE714LuN5ee56W+BrwdPZyZn+QvxAf7kFLAA8zVEcmzDVssVBqXqG5dVmr065dP0F7xkCXIPZKfQArmmK0rIsORu7bJI7yeaMCWv1ka43tSbVkWWfsAW+FuxLy5OpbMpx/471zwNHAAZLMoZB0svYQdmSjDnXnuclxm022rjeT2d7UJbxXq7BDWDLUFmPm0DWaqogARr5y/cmuqxOVOMW9Je04xTGBhfMur/wSI1rnELacZ+ALbzyZ8YwUOwz1bJl2aByXq13EwkrHPd1vPd0wHUkO7kRZD1uAlmr+VnCY+5mx99rM74eWLt3+akcAlq48cils+ovf9p0UnjZgsXFcn+5F2atAgxUxWxBqfptPaXKhGU3oxxm5TKwGCwCkp0iCjeAZGVTs2QY0hdYX23GzwQ6uhH9ZciP53jVbgt8LX6xbnN4Yncmh2Myd/EnAXewHqhStmATXT+TUmWC0jXVHVM8WCwBRwEKI6JwA0jpam6WdMTUgzu95JTN6NnC0jfkevkNHV1TDLAt8LV4YPVIOBRP8Ji8B2aeCfRsOR6l6rWZliqTcun6AFgKKAxF4QbgOnqWSC+JXJCRDqX22o65c4XButFPs78ULxlelGdJsgW+GnIbBk0/j3l+AnvXgqEepX4/m1JlUi5d/8CcawBFYaYs5Bqgnixp7EAj38OmbDO2UVDsMT+JgLpFNm9b4KtBIfm+hOPsd2Iqn4ipu8/1Em/Y1poN5dLFe27sJ0cD3ntrSZaMHe24b8w17euFPWq9F59anAimWI5swRf4Oi8glwUpXqfgeO1PLXXcMB5Tzy+axamqFssddxzrnA+OASxdZpbwxKVflzRckAA77VXbfZ+oYX8ZdL3cCV2ZnNy+f2ztplIWbOnsmYRt4QJc37zXSxRv9jvCH6A0fQd2YlsWceH60kPB3EuVyS+TvSHm/g/WltKl9xKe7pglctxufHNH3t2xzY2/6X5VM+EOvyaeKrK/9KD5d+O4POoFuevQc+5D8B9BNumc6iby6HV7PuQlJ23zNYLb4h0FlK6HER5mifQSXgvxKl6uSyI5Ag8j9SfZ0GyGNQv2FvSw4hfjnQcJoHNPvKuUHShVr0ddXo9zPJ66LgTsJcwSnux43GaWRHMERhAevcRLVr1f1Qx2eMHUyW58yiaCzkrHy3Yr579RlCoTrXStBswSXpcwSyJr7ts6lar7flVUsMHDo33sDTYRBPaQNOyNslSZlEvXjxArNndewTNLqjV3EWXmg8dcfrZhM6SZrMWuv8JLWUUQmBEppfIoVRPN3kDl0sWHNSI9An8MMxRb3TtKV/HKyTHgNiGEi72g2KOcqWaUKhOtdL0NyBG44c29BzPcAUkL7CHVPsyJCu50OFpgKbKJILCUdcTU/iu9ZNY2TzMol66HEDc5AkfW3JewsYNc1FfpJjf46eLxKFc2EXQ2OH4OF625Vve6jY7P0nUxMI/ADW/ufONoKqb+vFi5k424L1QLOebyGGsTQbgLr/cqZ38j7j7PFdoMW/ixL09denNnlujNXRdlVkPU5CQfh8wToziCsnbaDGsEuLjLnekl8jYRdNBfiru9ZN42Ryu4A6WrV6lHEScegSO7v6ULQoUHMOvX8ENht9/4/sLd3oUTU61jLnpbiFK1r9WlyqRcunaASJo7hy4I1eWkVHsEZeznaLxT98zi49xKLEU/qHXM/X7QzQcQ5kWpMtFKF5+Sqae5z3iYgnBCTkzFqfz7EzH18irHm5jrsfPOeGe4SLk1r8jXO97+K7zkPtsc84Fy6XoEsYmkbOmCEAoiWcJFqD7T81be9zrLTWS5S2yGVkOOuZ/Dac4mgsCLVZSq0u/b5pkvlEsXLxj105aUrYb2ETNLuBB3AFNzJfLygQDHZH4COJOgoR8V4UTN7MAFYIh1DgkQ+b/hv5F8TqILIqJQaVMULswdMZpW6ul+5WTreVyIJzYcc62303W+jJKW8ePhd884J3z4nPMj4fNbt4Wf2LRlmgtWHZtdOzA0LsC3UrA9xylmgmAP8VTpyUo+eroTHAf0z0ki6SMc9YjCRUUUGvJhlLHX3uH4+Wq3YU6JJ8Oz/aRVBJ1lfqIUsP9dfX3L+eeV106L+OktW8Nr1m0sUjAK1R1PvOgr96vwnzcd5YOryASpRxTWTDaz/t4geGb90PD+uOOElyU6Ss9l6WLwk8g+1yvdIDQF4IXhLhxvNwWp0q4cXbjYGpz5xhNjF5UE6guCp2G33tgpCHuvKUjDRZGewsW4KOuliBKmPa/wrsVHTa7rGwg70ZD12zCrsOuv9g8cc++DOPwkcDSRCjsh0sJkKty5ek34zVNPD/96+dVW5+cLkjF3bntPeNqSpRP0mb6DSAXhqCYKs8UUpdTcea2yK5HOrYgHkymlwiUQ5kLsfh+94zQvCBd4Ph8RDTcPDodXjmwIf3r+DqvjrWDPpbuny9P97ztrur8g8JPrBgYZ/CIqwL6RIDWxPZEuXZfRZ/oOIhdEhimMTRSWrzeVKOFWZEkGJ6bVjhee6PrhGEQ5JUhP0imS8f0836tDxxmAKOEa5rq0Rew6KUhPXIeMJgw87+1VultRfn/TBOGoJQp7itXY2UDHGYAoaeStIPoOTEEa1tQrjUqicGEaYDX2cIC+AwoSySmr2qgkCE9eVmMPB+g70K9DGnZhWM/QReGCLFttQQ6+Umdc2oK0AvoOKIjcgmdfZVz0ctU0Qdol64AgkX2UW2vYBGk39SafsPQhYuhNvS2I/YTV1OygIEzLhl+HHGrQd2A29KaXKxGEBtAQq7GHA/QdzJv+0RbkgCDVbplENmyC0IiK97IOB+h7OQZN7R8cIgbVbwtShr6DpvcPjrYgFug7aHr/4GgLYoG+l+Mg5UoXJNJRUZC0Uq/wtrbN4Lcy9Jm+IwZNzw4OmyByylrTo9Sz/DbWVtcf5wc7fBKlFd/liAo+QclnA+jbyW58nL5mlPodfOdfZbVlR1MEEVG4uFyHsH7y2MerVT4VvgvcCYGeBPxbVCF+uchvIZHtXjBpfhqn04xHR7mGuS5tEbt2esmc2MvA04cupV6AAL/Gz7eDSwH/sIDeOxiTponBoQvCnUAjaAzLFrNEHnjgZwN8ypHPK/F7FPxe3nKwHYyBm8BXCAR7HPxRB46/hNekNkcC1njRXBc8jtf43BX5LODf6zoXlP58B+CHULyry43HDSgnq5ZkB4cpCI2gMRSFO4XNXUSh4XSAjvB7FBSHj+9TIBGJ8EEzgd/f0+G3Xm3wOSgT2+8Rc059PSJ2iF20kdBe2q0LQb94i0QXo1LvaIogHJVEkdIlotBwEYYZQ6fIIKCTIpQOgyBIYEwkcJWwvUefl+hrii2EthHaSZtpO2+rixD0i/7RT12MlmSHDF0QEYVGiShSvmg4d5KIwzSnY3RQoMMCA6AjAupIwKphe585t74uEXtoH6GtRESgHyIE/ZMy1XIxZOii0Bg9U7hrRBg6IOKIQCKSQKd1JBiCBGk2mHMRcz3dFrFP7KXt9EEXwswKU4yWCkL0TKGRki26OCKQiCTQYRMJho4EaibY5iHmero9ROwUu+kDkYwws6LlYsjQjdBFEWFEHF0gEUlHHDeRwDQC2/yCaY9uq9gvIphCzBsxZOjGEN1QEUcXSNAd1dGDUQ9mAOvBtq5g2kl0P3T/TN/n1TCNI7rxRHesEraANBrbuiam7YLNz3k9bAbr2JysB1vQamGbp15stpsccsPmxFyxBc/E9r5G8JYeNodbTXu0R3u0R3u0xyE0YrH/A+P6lAaVkWnXAAAAAElFTkSuQmCC;" vertex="1" parent="1">
          <mxGeometry x="3.5" y="-300" width="62.5" height="50" as="geometry" />
        </mxCell>
        <mxCell id="GUJvGI-NjpSo06BksAi8-11" value="" style="shape=image;verticalLabelPosition=bottom;labelBackgroundColor=default;verticalAlign=top;aspect=fixed;imageAspect=0;image=data:image/png,iVBORw0KGgoAAAANSUhEUgAAAGUAAAA8CAMAAABII4TCAAAAAXNSR0IArs4c6QAAAARnQU1BAACxjwv8YQUAAAH1UExURQAAAAAAAAAAAAAAAAAAAAAAAAAAAAAAAAAAAAAAAAAAAAAAAAAAAAAAAAAAAAAAAAAAAAAAAAAAAAAAAAAAAAAAAAAAAAAAAAAAAAAAAAAAAAAAAAAAAAAAAAAAAAAAAAAAAAAAAAAAAAAAAAAAAAAAAAAAAAAAAAAAAAAAAAAAAAAAAAAAAAAAAAAAAAAAAAAAAAAAAAAAAAAAAAAAAAAAAAAAAAAAAAAAAAAAAAAAAAAAAAQICAAAAAAAAAAAAAAAAAAAAAIFBwAAAAAICwAKDQcPEggPEgALDwgPEgAOEgANEQANEgANEgAOEwkTFwkQFAkQFAANEgANEQAKDwALEAYMDgULDQAJDAULDQAJDAAeKQAjMAAqOREjKhQqMRkxOgAwQQ4dIgwWGgAHCQAHCQYzQwY6TAcoMxQsNBs6RB9BTgAPFAVAVREmLSRJVgBEXQ4fJShQXwAKDQMGBwUYHgsaHydRXwAFBwUTGC5fcQBKZgNMZgQHCShSYStYaCtYaS5fcChSYQBRcAFScAIDBAJdfgQJDDBhcgIFBgAAAABYeABjhwBojgBulgBznQB5pQB+rACEtACJuwCPwwCUygCa0gCf2QCl4QCq6ACw8DNoezZugjl1ikCCmUOIoUaPqUycuFavz1m212DD52PJ7mbQ9laT9xQAAACKdFJOUwABAgMEBQYHCAkKCwwNDg8QERITFBUWFxgZGhscHR4fICUpKi4yNTc+QkNERk5QU1RWWF9laXBzdnp7goKDhIeOj4+Qo6urtba4u77BxMrM0NHV3N7i5evs7O3v7+/v7+/w8PHy8/Pz8/Pz8/T09PT19fX29vb29vf39/j4+Pj4+Pj5+/v7+/v7/V+IQqIAAAAJcEhZcwAAFxEAABcRAcom8z8AAAQtSURBVFhH7Zj5d9tEEIATJ7Ik65YsK/IRSilnuMpNuTG03AQDhYK5ylEHyllKKfcNXSdN6xZakkIxAf5OZlajvtRaOdfyeH2v30+2dma+tzuSnnZHznMuM7oSFLceqMLaoNzVQBmcwiqhcISqDIVCKbkwtozxDDSAUHySTbXy4DEYzTOTUkpKcRC6rihJYCpbwUMKrG9eMTU1te0OYJrzxCD33glcCUQqkDq5argHHRdffutt09PPsO9fAn5aBPpiTuEYBn3OPkTnVZdpGtrARB6qOsDmG7fvZLuhdL+/9M9a+AudL7/Idj14y6VoAk+e5qadr37w+5+Utz6WTn+5e9ftnqYWEw1VXsaOLzZmSFn65HFD14qKWMO+kWT5mtlmScPZiCyz+z86sOEV++r9gz8wDzQq9iarYQsLP8+9vZ+98+bi6X7/b8pbJf3+H4tvzbCDe2aPLyywsmcbOq5ZxjIKFs6xI909nc4hdmhmZuZduFdP0Y2b5TcYPQBRPzLW6bzRne9RBRaVXQsnM8SS8muv1zvc7Xa/6+TxGYzOQdRJykhhccW3DegM9J+qp2Qs64fVosAxdd5/qp4i09KYKLtCy6hUS/z/WgqyLdj9gXsM3sVS+xI4hpa9k+Va6hHcyWr2qZRrqVV8fCqzlsKYREs19CxB82EqMi35zZdpiQJ4wQjbMi7Rkt8WmZbQEz2TuGCKREvZyWuLTEt+W4oSLZ64LZItea/KMakWeInltEWVaLFzFkyuhRbsP7aIFowsT81T0EY5+qxowbhlvLjpkX3vzf9CkevlxJFP9z52EUwla0nuMc248OaHntvX/na2d4Jy1sLJ3ly3vfe1R7dtwa9XgQQnM66oJdPxwy3X3nVf63XGnm+/AN90h+Gb7hiVyXIcRuch6pV2m7GPW/fffc0lYQBfleKp0JJphuX6YRRX643Jyauvu77ZbD7QarWeZHk8DaMPN5v33LB1a6Neq8ZRpew7FrReOBW04GR0w3K8oFyJJuJqtVar1+uNBggnJy/gbOIkv/EqDDbq9VqtVq3GExEoAt/lewr4rBBZkskoqlYyLcf1/KAchpVKFE0AcQxKAKoR/C9cjmE0guqVMCyDwXMd2+T7I+F6AbhrBU1R00uGadmO63qe7/tBEJSBEKgsA/9DYSgdBBDleS4IbMs0Sjrf66FEZEk1SlFFkWGalmXZtu0ALuANgNdcHIQYiDRNAwyoGLZvBVADHphPUVU1Tdf1Ugl0KESg1DKSazgKQVBe12gPjpv9IRLSFPC0QuFnFHhSADoAqgjgQ1D7zHkCP7pIzi2opAgYPXMywo878CTirEMRLqbfQDKenI1gEimGSgAewk10CoPwImIogpdHknwqNowkEKDEFCpH0MUUSkGozCqghLOhghy6NABlrxXKXgEKPs85x8jIv6FnG3k+2K4LAAAAAElFTkSuQmCC;" vertex="1" parent="1">
          <mxGeometry x="-3.3699999999999974" y="10" width="84.17" height="50" as="geometry" />
        </mxCell>
      </root>
    </mxGraphModel>
  </diagram>
</mxfile>
